# xmcd
#
# Track frame offsets:
#	150
#	52197
#	67544
#	86079
#	98682
#	113795
#	134271
#	161908
#	209377
#
# Disc length: 3088 seconds
#
# Revision: 1
# Processed by: cddbd v1.5.2PL0 Copyright (c) Steve Scherf et al.
# Submitted via: audiograbber 1.83.01
#
DISCID=780c0e09
DTITLE=Grateful Dead - 70-11-08A Capitol Theatre, Port Chester NY
DYEAR=1900
DGENRE=
TTITLE0=Morning Dew
TTITLE1=Me and My Uncle
TTITLE2=Mystery Train
TTITLE3=My Babe
TTITLE4=Around and Around
TTITLE5=New Orleans
TTITLE6=Searchin'
TTITLE7=It's All Over Now, Baby Blue
TTITLE8=Casey Jones
EXTD=
EXTT0=
EXTT1=
EXTT2=
EXTT3=
EXTT4=
EXTT5=
EXTT6=
EXTT7=
EXTT8=
PLAYORDER=
